<svg width="106" height="24" viewBox="0 0 106 24" fill="none" xmlns="http://www.w3.org/2000/svg">
<path d="M8.48 23.512C7.136 23.512 5.77067 23.3413 4.384 23C2.99733 22.68 1.824 22.2427 0.864 21.688L2.016 16.472C3.25333 17.1333 4.40533 17.5707 5.472 17.784C6.56 17.976 7.56267 18.072 8.48 18.072C9.33333 18.072 9.97333 17.9333 10.4 17.656C10.848 17.3787 11.072 17.0053 11.072 16.536C11.072 16.1093 10.8267 15.7787 10.336 15.544C9.84533 15.288 9.20533 15.0533 8.416 14.84C7.648 14.6267 6.82667 14.3813 5.952 14.104C5.07733 13.8053 4.24533 13.4213 3.456 12.952C2.688 12.4613 2.05867 11.8213 1.568 11.032C1.07733 10.2213 0.832 9.208 0.832 7.992C0.832 6.456 1.20533 5.13333 1.952 4.024C2.69867 2.89333 3.76533 2.02933 5.152 1.432C6.53867 0.813333 8.17067 0.504 10.048 0.504C11.3067 0.504 12.5333 0.674666 13.728 1.016C14.944 1.336 15.9147 1.77333 16.64 2.328L15.552 7.032C14.464 6.584 13.4827 6.264 12.608 6.072C11.7547 5.85867 10.944 5.752 10.176 5.752C9.28 5.752 8.59733 5.88 8.128 6.136C7.65867 6.392 7.424 6.73333 7.424 7.16C7.424 7.56533 7.66933 7.896 8.16 8.152C8.65067 8.408 9.28 8.65333 10.048 8.888C10.816 9.12267 11.6373 9.38933 12.512 9.688C13.3867 9.98667 14.208 10.3813 14.976 10.872C15.744 11.3627 16.3733 12.0027 16.864 12.792C17.3547 13.5813 17.6 14.5733 17.6 15.768C17.6 18.2427 16.7893 20.152 15.168 21.496C13.568 22.84 11.3387 23.512 8.48 23.512ZM30.6393 23.512C28.3139 23.512 26.2659 23.0213 24.4953 22.04C22.7246 21.0587 21.3379 19.704 20.3353 17.976C19.3539 16.248 18.8633 14.264 18.8633 12.024C18.8633 9.76267 19.3539 7.768 20.3353 6.04C21.3379 4.312 22.7246 2.95733 24.4953 1.976C26.2659 0.994666 28.3139 0.504 30.6393 0.504C32.9646 0.504 35.0126 0.994666 36.7833 1.976C38.5539 2.936 39.9299 4.28 40.9113 6.008C41.9139 7.736 42.4153 9.74133 42.4153 12.024C42.4153 14.264 41.9139 16.248 40.9113 17.976C39.9299 19.704 38.5539 21.0587 36.7833 22.04C35.0126 23.0213 32.9646 23.512 30.6393 23.512ZM30.6393 17.688C31.9833 17.688 33.0819 17.1653 33.9353 16.12C34.8099 15.0747 35.2473 13.6987 35.2473 11.992C35.2473 10.84 35.0446 9.82667 34.6393 8.952C34.2553 8.07733 33.7113 7.39467 33.0073 6.904C32.3246 6.392 31.5246 6.136 30.6073 6.136C29.2633 6.136 28.1646 6.68 27.3113 7.768C26.4579 8.83467 26.0312 10.2427 26.0312 11.992C26.0312 13.6987 26.4579 15.0747 27.3113 16.12C28.1646 17.1653 29.2739 17.688 30.6393 17.688ZM45.01 23V0.983999H51.922V17.944H59.73L59.41 23H45.01ZM64.4648 23L57.9367 0.983999H65.4888L68.8808 14.712L72.2728 0.983999H79.5048L72.6248 23H64.4648ZM81.0725 23V0.983999H96.5285V5.848H88.8485V9.752H95.8565V13.784H88.8485V17.976H96.5285V23H81.0725ZM102.232 23.192C101.059 23.192 100.163 22.8827 99.5443 22.264C98.9256 21.624 98.6163 20.8453 98.6163 19.928C98.6163 18.9893 98.9469 18.2213 99.6083 17.624C100.27 17.0053 101.144 16.696 102.232 16.696C103.32 16.696 104.184 17.016 104.824 17.656C105.486 18.296 105.816 19.0533 105.816 19.928C105.816 20.9093 105.507 21.6987 104.888 22.296C104.291 22.8933 103.406 23.192 102.232 23.192Z" fill="white"/>
</svg>
